HIERARCHY
ROOT Hips
{
    OFFSET 0.0 0.0 0.0
    CHANNELS 6 Xposition Yposition Zposition Zrotation Xrotation Yrotation
    JOINT LeftHipJoint
    {
        OFFSET 0.1 0.0 0.0
        CHANNELS 3 Zrotation Xrotation Yrotation
        JOINT LeftUpLeg
        {
            OFFSET 122.93047818417847 0.0 0.0
            CHANNELS 3 Zrotation Xrotation Yrotation
            JOINT LeftLeg
            {
                OFFSET 0.0 0.0 -413.7225205487598
                CHANNELS 3 Zrotation Xrotation Yrotation
                JOINT LeftFoot
                {
                    OFFSET 0.0 0.0 -398.5038452834899
                    CHANNELS 3 Zrotation Xrotation Yrotation
                    End Site
                    {
                        OFFSET 0.0 -0.1 0.0
                    }
                }
            }
        }
    }
    JOINT LowerBack
    {
        OFFSET 0.0 0.0 0.1
        CHANNELS 3 Zrotation Xrotation Yrotation
        JOINT Spine
        {
            OFFSET 0.0 0.0 220.39991530127293
            CHANNELS 3 Zrotation Xrotation Yrotation
            JOINT Spine1
            {
                OFFSET 0.0 0.0 252.7906309312396
                CHANNELS 3 Zrotation Xrotation Yrotation
                JOINT LeftShoulder
                {
                    OFFSET 0.1 0.0 0.0
                    CHANNELS 3 Zrotation Xrotation Yrotation
                    JOINT LeftArm
                    {
                        OFFSET 143.0097579980065 0.0 0.0
                        CHANNELS 3 Zrotation Xrotation Yrotation
                        JOINT LeftForeArm
                        {
                            OFFSET 261.470586858992 0.0 0.0
                            CHANNELS 3 Zrotation Xrotation Yrotation
                            JOINT LeftHand
                            {
                                OFFSET 241.48004058815556 0.0 0.0
                                CHANNELS 3 Zrotation Xrotation Yrotation
                                End Site
                                {
                                    OFFSET 0.1 0.0 0.0
                                }
                            }
                        }
                    }
                }
                JOINT Neck
                {
                    OFFSET 0.0 0.0 0.1
                    CHANNELS 3 Zrotation Xrotation Yrotation
                    JOINT Neck1
                    {
                        OFFSET 0.0 0.0 106.4242075267526
                        CHANNELS 3 Zrotation Xrotation Yrotation
                        End Site
                        {
                            OFFSET 0.0 0.0 114.36605568781621
                        }
                    }
                }
                JOINT RightShoulder
                {
                    OFFSET -0.1 0.0 0.0
                    CHANNELS 3 Zrotation Xrotation Yrotation
                    JOINT RightArm
                    {
                        OFFSET -143.0097579980065 0.0 0.0
                        CHANNELS 3 Zrotation Xrotation Yrotation
                        JOINT RightForeArm
                        {
                            OFFSET -261.470586858992 0.0 0.0
                            CHANNELS 3 Zrotation Xrotation Yrotation
                            JOINT RightHand
                            {
                                OFFSET -241.48004058815556 0.0 0.0
                                CHANNELS 3 Zrotation Xrotation Yrotation
                                End Site
                                {
                                    OFFSET -0.1 0.0 0.0
                                }
                            }
                        }
                    }
                }
            }
        }
    }
    JOINT RightHipJoint
    {
        OFFSET -0.1 0.0 0.0
        CHANNELS 3 Zrotation Xrotation Yrotation
        JOINT RightUpLeg
        {
            OFFSET -122.93047818417847 0.0 0.0
            CHANNELS 3 Zrotation Xrotation Yrotation
            JOINT RightLeg
            {
                OFFSET 0.0 0.0 -413.7225205487598
                CHANNELS 3 Zrotation Xrotation Yrotation
                JOINT RightFoot
                {
                    OFFSET 0.0 0.0 -398.5038452834899
                    CHANNELS 3 Zrotation Xrotation Yrotation
                    End Site
                    {
                        OFFSET 0.0 -0.1 0.0
                    }
                }
            }
        }
    }
}
MOTION
Frames: 11
Frame Time: 0.03333333333333333
0.0 0.0 819.923638070483 30.617554785303927 -5.478687715409815 2.240594389410761 -4.310455369189608e-35 -2.4848083448933725e-17 -1.987846675914698e-16 0.6118206684692361 -13.048676880546612 1.7043503707925831 -0.5672742144720633 29.71229043791979 2.053566188689565 0.0 0.0 0.0 -4.310455369189608e-35 -2.4848083448933725e-17 -1.987846675914698e-16 0.15228606205229403 -3.316749300980207 2.7605083199692966 4.5067231989180865 -1.1917857215521952e-15 4.6895419867562845e-17 0.0 0.0 0.0 -18.366668410586538 20.697327284342006 73.63957600794164 -19.335231834445512 -8.999864696667374e-15 7.849810510454599e-15 7.951386703658792e-16 -1.4483130040477084e-32 -2.087239009710433e-15 0.0 0.0 0.0 -14.101785768332022 4.369867349611971 -7.344195971772155 0.0 0.0 0.0 41.70927942621838 -57.667698678197176 -0.5297441904861916 101.48915971061216 -7.838644200157708e-15 -1.0513155306262021e-14 -3.975693351829396e-16 0.0 0.0 -4.310455369189608e-35 -2.4848083448933725e-17 -1.987846675914698e-16 0.13193344720832384 -2.9246159464502663 -1.3634731715766994 -1.822832910283377 24.513737889132166 2.858647363164148 0.0 0.0 -7.951386703658792e-16
0.0 0.0 819.923638070483 30.65068798915115 -5.61689773729152 2.391819543722573 0.0 0.0 0.0 0.549302531599734 -12.499876509710841 1.7639779061656793 -0.4274848693804122 29.27074435216323 2.074904914127302 0.0 0.0 -3.975693351829396e-16 0.0 0.0 0.0 0.1434743557903559 -3.3303370237579593 2.826651842024455 4.628290485261561 6.720478935119478e-17 -7.985035112113425e-16 0.0 1.5902773407317584e-15 0.0 -18.09168193204559 20.794131400862 73.48892393792693 -19.37244933796322 9.437604814580716e-16 -3.1662959357621494e-15 -7.951386703658789e-16 1.590277340731758e-15 -5.665363026356888e-15 0.0 1.5902773407317584e-15 0.0 -14.25910699184553 4.653437935592398 -7.223902739018472 0.0 1.5902773407317584e-15 0.0 42.09308409420772 -57.29022213084182 0.09442795706808943 99.91113379213776 -8.185239999721488e-15 9.739440202364367e-15 0.0 0.0 0.0 0.0 0.0 0.0 0.11030269375422327 -2.6132909943401654 -1.387786795112359 -1.7493676619630831 24.39027958951365 2.8844265308047286 0.0 0.0 -7.951386703658792e-16
0.0 0.0 819.923638070483 30.69314977857487 -5.700608708851967 2.4856489416022063 0.0 0.0 0.0 0.4927706153977045 -11.945619116438559 1.8236885626504147 -0.3028626978884257 29.018568967665665 2.143428337158587 0.0 0.0 3.975693351829396e-16 0.0 0.0 0.0 0.13779702042059008 -3.4035766656224675 2.9454452068981407 4.628409317010993 -1.6050339892047667e-15 -3.3303046440244893e-16 0.0 0.0 0.0 -17.851778828787882 20.774571676772013 73.40377042497038 -19.330734869275794 4.1185528502395756e-15 -1.234260643412312e-14 -7.951386703658792e-16 -7.58640144977371e-33 1.0933156717530838e-15 0.0 0.0 0.0 -14.660920190770023 5.054228945431961 -7.058429858040744 0.0 0.0 0.0 42.81842081053362 -56.86721667683798 1.0661369740558537 98.17946727841662 -2.7244505464392284e-15 -6.5693994876932586e-15 -7.951386703658792e-16 0.0 0.0 0.0 0.0 0.0 0.1039121253309006 -2.620945907878334 -1.2460762183139493 -1.627878601665072 24.532757392433762 2.905659735508658 0.0 0.0 0.0
0.0 0.0 819.923638070483 30.72487950393773 -5.724297610330965 2.681522464064349 0.0 0.0 -1.987846675914698e-16 0.43016035170935196 -11.706372287610513 1.7565728017482332 -0.19447656759489015 28.920727492867183 2.1375050418735335 0.0 0.0 -3.975693351829396e-16 0.0 0.0 -1.987846675914698e-16 0.12538578556195976 -3.478077998071085 2.9215798451156827 4.814308972814151 1.787483328063519e-15 -7.514134361659694e-17 0.0 1.5902773407317582e-15 0.0 -17.33001698290024 20.74411727945298 73.16645496057072 -19.478079819810517 -1.2964852503966686e-15 2.8532715793921263e-15 0.0 0.0 1.987846675914698e-15 0.0 1.5902773407317582e-15 0.0 -14.673927981123603 5.202687515475385 -7.135778604752094 0.0 1.5902773407317582e-15 0.0 43.70612364000294 -55.81780950602421 2.3590765731533936 95.66492124051636 1.1120085619814878e-14 -2.801920925208241e-15 7.951386703658792e-16 0.0 0.0 0.0 0.0 -1.987846675914698e-16 0.0953346969896072 -2.7090069337605427 -1.2581999933218369 -1.554002112531264 25.055547696939446 2.8547493857294253 0.0 -3.1805546814635168e-15 0.0
0.0 0.0 819.923638070483 30.812938923446687 -5.794989891698078 2.8583535155693154 0.0 0.0 1.987846675914698e-16 0.37248352732529094 -11.358716694822679 1.7241904253234484 -0.0850876896024087 28.756088733421795 2.016633259128458 1.3793457181406746e-33 3.975693351829396e-16 -3.975693351829396e-16 0.0 0.0 1.987846675914698e-16 0.11133399062946256 -3.4616766751556276 2.98691661477337 4.978032058639648 1.5887770179721416e-15 -6.906234580740989e-17 0.0 0.0 0.0 -16.97692966388258 20.68727555421728 72.95378118829072 -19.500509717093227 1.6215403737454596e-15 -2.393861273342023e-15 0.0 0.0 -1.987846675914698e-15 0.0 0.0 0.0 -14.972933415746235 5.457664130407742 -7.10875808472623 0.0 0.0 0.0 44.493815167140916 -55.1616191061181 3.6192334002459283 94.00330676408426 -1.1473758083904678e-14 -6.350090772759348e-15 7.951386703658792e-16 0.0 0.0 0.0 0.0 1.987846675914698e-16 0.08304765352964386 -2.6567531361604564 -1.3091219984008322 -1.4959592855152901 25.389794980425282 2.90628837873801 0.0 0.0 7.951386703658792e-16
0.0 0.0 819.923638070483 30.848097849076115 -5.930047602515326 3.12364632261188 0.0 4.9696166897867443e-17 0.0 0.29446764027337446 -10.87104095707846 1.56890864007922 0.011318777734527288 28.518274070001237 1.8343592481726458 0.0 0.0 -7.951386703658792e-16 0.0 4.9696166897867443e-17 0.0 0.09206035861982888 -3.47026117559661 2.9164906131505197 5.233183300289065 6.138821806245171e-16 3.6992991392228953e-16 0.0 0.0 0.0 -16.50278927196604 20.80278464753235 72.6705775296683 -19.53881870581023 7.495280351878082e-18 6.985490087015158e-15 -1.6896985047223264e-32 -3.9756933518293945e-16 -4.8702243559910086e-15 0.0 0.0 0.0 -15.045339655346629 5.744164488747915 -7.020922332154297 0.0 0.0 0.0 44.55862709604526 -54.6793755369299 3.9812548510448007 92.89874380042521 -6.574161368587661e-15 6.915472148435353e-15 3.975693351829396e-16 -3.1805546814635168e-15 1.1034765745125397e-32 0.0 4.9696166897867443e-17 0.0 0.06376536638290478 -2.501039100150994 -1.470195146709076 -1.4486844118687632 25.85158652150142 2.908328998361068 0.0 0.0 -7.951386703658792e-16
0.0 0.0 819.923638070483 31.017252754082076 -5.971141736456837 3.409591839766175 0.0 4.9696166897867443e-17 0.0 0.2304890122323304 -10.499358242766062 1.4774167919777157 0.12092506669565423 28.216156903653346 1.5423467066512553 0.0 0.0 -3.975693351829396e-16 0.0 4.9696166897867443e-17 0.0 0.07242112435587544 -3.373043366259967 2.8469994530292024 5.33088535668063 -1.0612683591925152e-16 1.994940311315688e-15 0.0 0.0 0.0 -16.166560237687 20.702386539073437 72.40390445749861 -19.49796015703205 3.0967563530059696e-15 7.589728448597869e-16 0.0 0.0 -1.987846675914698e-16 0.0 0.0 0.0 -15.34829542274001 5.904981653920047 -7.094827850908425 0.0 0.0 0.0 44.996660169120894 -54.594599132219 4.969457252575167 91.71540777122213 -1.1344695785718545e-14 -6.57789137336208e-15 3.975693351829398e-16 -3.1805546814635164e-15 6.361109362927033e-15 0.0 4.9696166897867443e-17 0.0 0.048494812633846314 -2.3720517708243603 -1.5713760572328437 -1.3697741938106618 26.060311716723618 2.8025990107399306 0.0 0.0 -7.951386703658792e-16
0.0 0.0 819.923638070483 31.056244655737366 -5.997024128821128 3.5895875910614112 0.0 0.0 0.0 0.18464116550120685 -10.207850123042123 1.4535530887897392 0.22628320759868653 28.03722640602801 1.4789068414748048 -3.1805546814635168e-15 2.2069531490250793e-32 -7.951386703658792e-16 0.0 0.0 0.0 0.05689512602208459 -3.224249972118228 2.810718784867896 5.424625695105696 3.3379267271717987e-15 -9.541619910763377e-16 0.0 0.0 0.0 -15.232576317830649 20.379325183570256 72.14338464145746 -19.480407612239944 -9.624065107620437e-15 1.84667600388223e-14 0.0 0.0 -1.7890620083232284e-15 0.0 0.0 0.0 -15.252665201462369 6.155850246460737 -7.181964941313179 0.0 0.0 0.0 45.69366544338933 -54.76558806519239 6.043492696025302 91.09747155602233 6.682049468187245e-15 -6.811282378577033e-15 -3.975693351829396e-16 0.0 0.0 0.0 0.0 0.0 0.038397756711220046 -2.3146712710001967 -1.6106665620604688 -1.294771171179559 26.290114793901765 2.8481933395186165 0.0 0.0 0.0
0.0 0.0 819.923638070483 31.09126654669926 -6.114798802562142 3.621934495023708 0.0 0.0 0.0 0.1630066480367448 -9.946496496045663 1.5970850560925307 0.3546616947890473 28.012199758890176 1.3717470316809621 0.0 0.0 0.0 0.0 0.0 0.0 0.04660289571400748 -2.918646496649438 2.946695106553983 5.492853481849703 7.370757554348265e-16 -1.229437766770502e-15 0.0 0.0 0.0 -14.403065361709464 20.079714429303458 71.89778374078668 -19.720229606956206 -8.914261124713418e-15 9.497238970964973e-15 7.951386703658792e-16 -7.951386703658792e-16 1.5902773407317584e-15 0.0 0.0 0.0 -15.139194808557303 6.155581737169316 -7.3605687437678435 0.0 0.0 0.0 46.536994550755004 -54.986944937847646 7.127759708424091 90.83287180326174 0.0 0.0 0.0 0.0 0.0 0.0 0.0 0.0 0.03439540996602621 -2.303832626974285 -1.4087075435115768 -1.1632470438109037 26.605437586671606 2.688226326900679 0.0 0.0 7.951386703658792e-16
0.0 0.0 819.923638070483 31.1118350898817 -6.234366167796019 3.6920135926944337 0.0 -7.951386703658792e-16 0.0 0.14627849556094463 -9.823361097090205 1.735819031354173 0.4676591427537586 27.659879036999968 1.3323559215905614 -3.1805546814635168e-15 -2.2069531490250793e-32 7.951386703658792e-16 0.0 -7.951386703658792e-16 0.0 0.03805619482255904 -2.6288138965617778 3.1052363211413003 5.664828738265216 -1.1519592860553228e-15 8.531047385182963e-16 0.0 0.0 0.0 -13.330907582051124 19.87244122348365 71.643720335549 -19.98559860817809 -1.9542095586888192e-15 1.9264495204816643e-15 1.5902773407317584e-15 4.1380371544220234e-32 2.9817700138720468e-15 0.0 0.0 0.0 -15.01553905282708 6.4029587393975955 -7.528538163709101 0.0 0.0 0.0 47.083702367306294 -55.20250051638871 8.121924986499492 90.5476332900904 -2.281209787015354e-15 -6.736150407801388e-15 0.0 0.0 0.0 0.0 -7.951386703658792e-16 0.0 0.029412538455755203 -2.2001013995425893 -1.2596367642277053 -1.0528739763460249 26.763445002252322 2.5231401201491246 0.0 0.0 0.0
0.0 0.0 819.923638070483 30.98572142459552 -6.327577496904297 3.703695805754103 0.0 0.0 0.0 0.12438432103398472 -9.739276171059947 2.000592887635158 0.6719345042726862 27.699413912909073 1.1040927031060928 -2.2069531490250793e-32 1.5902773407317584e-15 1.5902773407317584e-15 0.0 0.0 0.0 0.030514337344861926 -2.46729724017338 3.146478527312732 5.887953210353133 1.3488183167407776e-15 -8.655556093856128e-16 0.0 0.0 0.0 -12.34257080136831 19.6502461065169 71.44644934577173 -20.35162823142688 4.333356056335041e-15 -6.139374697253334e-15 -7.951386703658794e-16 -9.655420026984722e-33 1.391492673140289e-15 0.0 0.0 0.0 -14.859454031386154 6.489029409769778 -7.372061877777601 0.0 0.0 0.0 47.81003883030591 -55.235609065399125 9.164432027235097 90.28716023694818 -4.509241134528203e-15 -4.486697751999433e-15 3.975693351829396e-16 0.0 0.0 0.0 0.0 0.0 0.0251696385376082 -2.2385394042113513 -0.9292427406923846 -0.8395267930159012 27.165228818893084 2.184416480162162 -3.1805546814635168e-15 2.2069531490250793e-32 -7.951386703658792e-16
